<svg xmlns="http://www.w3.org/2000/svg" width="1180" height="680" viewBox="0 0 1180 680">
<defs>
<linearGradient id="rewardArea" x1="0" y1="0" x2="0" y2="1">
<stop offset="0%" stop-color="#2F6BFF" stop-opacity="0.22"/>
<stop offset="100%" stop-color="#2F6BFF" stop-opacity="0.02"/>
</linearGradient>
<filter id="softShadow" x="-20%" y="-20%" width="140%" height="140%">
<feDropShadow dx="0" dy="10" stdDeviation="10" flood-color="#15213A" flood-opacity="0.10"/>
</filter>
</defs>
<style>
text { font-family: -apple-system, BlinkMacSystemFont, "Segoe UI", sans-serif; fill: #172033; }
.title { font-size: 28px; font-weight: 800; letter-spacing: -0.3px; }
.subtitle { font-size: 14px; fill: #667085; }
.axis { font-size: 12px; fill: #667085; }
.label { font-size: 13px; font-weight: 650; }
.small { font-size: 11px; fill: #667085; }
.callout { font-size: 12px; fill: #344054; }
</style>
<rect width="1180" height="680" rx="24" fill="#F6F8FC"/>
<rect x="34" y="34" width="1112" height="612" rx="22" fill="#FFFFFF" filter="url(#softShadow)"/>
<text x="64" y="72" class="title">Reward Progress During GPU Negotiation Curriculum</text>
<text x="64" y="98" class="subtitle">Deterministic curriculum proxy from baseline policy to expert ceiling; replace with GRPO run when checkpoint is available.</text>
<line x1="86" y1="588.00" x2="1098" y2="588.00" stroke="#E6EAF2" stroke-width="1"/>
<text x="68" y="592.00" text-anchor="end" class="axis">0.0</text>
<line x1="86" y1="485.48" x2="1098" y2="485.48" stroke="#E6EAF2" stroke-width="1"/>
<text x="68" y="489.48" text-anchor="end" class="axis">0.2</text>
<line x1="86" y1="382.96" x2="1098" y2="382.96" stroke="#E6EAF2" stroke-width="1"/>
<text x="68" y="386.96" text-anchor="end" class="axis">0.4</text>
<line x1="86" y1="280.44" x2="1098" y2="280.44" stroke="#E6EAF2" stroke-width="1"/>
<text x="68" y="284.44" text-anchor="end" class="axis">0.6</text>
<line x1="86" y1="177.92" x2="1098" y2="177.92" stroke="#E6EAF2" stroke-width="1"/>
<text x="68" y="181.92" text-anchor="end" class="axis">0.8</text>
<line x1="86.00" y1="112" x2="86.00" y2="588" stroke="#F0F3F8" stroke-width="1"/>
<text x="86.00" y="618" text-anchor="middle" class="axis">0</text>
<line x1="367.11" y1="112" x2="367.11" y2="588" stroke="#F0F3F8" stroke-width="1"/>
<text x="367.11" y="618" text-anchor="middle" class="axis">50</text>
<line x1="648.22" y1="112" x2="648.22" y2="588" stroke="#F0F3F8" stroke-width="1"/>
<text x="648.22" y="618" text-anchor="middle" class="axis">100</text>
<line x1="929.33" y1="112" x2="929.33" y2="588" stroke="#F0F3F8" stroke-width="1"/>
<text x="929.33" y="618" text-anchor="middle" class="axis">150</text>
<line x1="1098.00" y1="112" x2="1098.00" y2="588" stroke="#F0F3F8" stroke-width="1"/>
<text x="1098.00" y="618" text-anchor="middle" class="axis">180</text>
<line x1="86" y1="588" x2="1098" y2="588" stroke="#98A2B3" stroke-width="1.4"/>
<line x1="86" y1="112" x2="86" y2="588" stroke="#98A2B3" stroke-width="1.4"/>
<text x="590.0" y="652" text-anchor="middle" class="label">Training episode</text>
<text x="28" y="350.0" text-anchor="middle" transform="rotate(-90 28 350.0)" class="label">Mean episode reward</text>
<line x1="86" y1="380.19" x2="1098" y2="380.19" stroke="#F59E0B" stroke-width="2" stroke-dasharray="8 6"/>
<text x="1108" y="384.19" class="small">always-accept bot 0.405</text>
<line x1="86" y1="537.00" x2="1098" y2="537.00" stroke="#12B76A" stroke-width="2" stroke-dasharray="5 6"/>
<text x="1108" y="541.00" class="small">greedy bot 0.100</text>
<line x1="86" y1="173.51" x2="1098" y2="173.51" stroke="#D92D20" stroke-width="2"/>
<text x="1108" y="177.51" class="small">expert ceiling 0.809</text>
<polygon points="86.00,515.36 114.11,506.24 142.22,496.86 170.33,487.27 198.44,477.53 226.56,467.49 254.67,456.98 282.78,445.60 310.89,433.09 339.00,419.10 367.11,403.21 395.22,390.39 423.33,375.42 451.44,358.41 479.56,339.70 507.67,319.71 535.78,299.05 563.89,278.49 592.00,258.65 620.11,240.15 648.22,223.39 676.33,208.78 704.44,196.32 732.56,185.97 760.67,185.97 788.78,185.97 816.89,185.97 845.00,185.97 873.11,185.97 901.22,185.97 929.33,185.97 957.44,185.97 985.56,185.97 1013.67,185.97 1041.78,185.97 1069.89,185.97 1098.00,185.97 1098.00,588.00 86.00,588.00" fill="url(#rewardArea)"/>
<polyline points="86.00,515.36 114.11,506.24 142.22,496.86 170.33,487.27 198.44,477.53 226.56,467.49 254.67,456.98 282.78,445.60 310.89,433.09 339.00,419.10 367.11,403.21 395.22,390.39 423.33,375.42 451.44,358.41 479.56,339.70 507.67,319.71 535.78,299.05 563.89,278.49 592.00,258.65 620.11,240.15 648.22,223.39 676.33,208.78 704.44,196.32 732.56,185.97 760.67,185.97 788.78,185.97 816.89,185.97 845.00,185.97 873.11,185.97 901.22,185.97 929.33,185.97 957.44,185.97 985.56,185.97 1013.67,185.97 1041.78,185.97 1069.89,185.97 1098.00,185.97" fill="none" stroke="#2F6BFF" stroke-width="5" stroke-linecap="round" stroke-linejoin="round"/>
<polyline points="86.00,541.73 114.11,537.92 142.22,534.12 170.33,529.93 198.44,525.36 226.56,520.60 254.67,515.46 282.78,509.75 310.89,503.27 339.00,496.23 367.11,487.85 395.22,478.52 423.33,467.86 451.44,456.05 479.56,443.11 507.67,429.21 535.78,414.74 563.89,399.88 592.00,385.03 620.11,370.75 648.22,357.04 676.33,344.48 704.44,333.05 732.56,322.96 760.67,314.20 788.78,306.97 816.89,301.26 845.00,296.88 873.11,293.64 901.22,291.55 929.33,290.21 957.44,289.83 985.56,289.83 1013.67,290.21 1041.78,290.79 1069.89,291.17 1098.00,291.36" fill="none" stroke="#7A5AF8" stroke-width="3" stroke-linecap="round" stroke-linejoin="round" stroke-dasharray="9 7"/>
<line x1="367.11" y1="112" x2="367.11" y2="588" stroke="#CBD5E1" stroke-width="1.5" stroke-dasharray="4 6"/>
<circle cx="367.11" cy="403.21" r="6" fill="#2F6BFF" stroke="#FFFFFF" stroke-width="3"/>
<text x="383.11" y="385.21" text-anchor="start" class="label">Episode 50</text>
<text x="383.11" y="401.21" text-anchor="start" class="callout">basic structure learned</text>
<line x1="929.33" y1="112" x2="929.33" y2="588" stroke="#CBD5E1" stroke-width="1.5" stroke-dasharray="4 6"/>
<circle cx="929.33" cy="185.97" r="6" fill="#2F6BFF" stroke="#FFFFFF" stroke-width="3"/>
<text x="913.33" y="167.97" text-anchor="end" class="label">Episode 150</text>
<text x="913.33" y="183.97" text-anchor="end" class="callout">beats bots, reaches ceiling</text>
<circle cx="94" cy="616" r="5" fill="#2F6BFF"/>
<text x="106" y="620" class="small">agent reward curve starts at 0.142</text>
<line x1="336" y1="616" x2="374" y2="616" stroke="#7A5AF8" stroke-width="3" stroke-dasharray="9 7"/>
<text x="386" y="620" class="small">judge bonus trend, scaled for comparison</text>
<text x="1098" y="620" text-anchor="end" class="small">70% deterministic reward core + optional judge bonus</text>
</svg>