<svg xmlns="http://www.w3.org/2000/svg" width="1180" height="680" viewBox="0 0 1180 680">
<defs>
<linearGradient id="rewardArea" x1="0" y1="0" x2="0" y2="1">
<stop offset="0%" stop-color="#2F6BFF" stop-opacity="0.22"/>
<stop offset="100%" stop-color="#2F6BFF" stop-opacity="0.02"/>
</linearGradient>
<filter id="softShadow" x="-20%" y="-20%" width="140%" height="140%">
<feDropShadow dx="0" dy="10" stdDeviation="10" flood-color="#15213A" flood-opacity="0.10"/>
</filter>
</defs>
<style>
text { font-family: -apple-system, BlinkMacSystemFont, "Segoe UI", sans-serif; fill: #172033; }
.title { font-size: 28px; font-weight: 800; letter-spacing: -0.3px; }
.subtitle { font-size: 14px; fill: #667085; }
.axis { font-size: 12px; fill: #667085; }
.label { font-size: 13px; font-weight: 650; }
.small { font-size: 11px; fill: #667085; }
.callout { font-size: 12px; fill: #344054; }
</style>
<rect width="1180" height="680" rx="24" fill="#F6F8FC"/>
<rect x="34" y="34" width="1112" height="612" rx="22" fill="#FFFFFF" filter="url(#softShadow)"/>
<text x="64" y="72" class="title">Reward Progress During GPU Negotiation Curriculum</text>
<text x="64" y="98" class="subtitle">Real lightweight policy-selector training curve; optional Unsloth/TRL cells can replace this with model-weight fine-tuning.</text>
<line x1="86" y1="588.00" x2="1098" y2="588.00" stroke="#E6EAF2" stroke-width="1"/>
<text x="68" y="592.00" text-anchor="end" class="axis">0.0</text>
<line x1="86" y1="438.90" x2="1098" y2="438.90" stroke="#E6EAF2" stroke-width="1"/>
<text x="68" y="442.90" text-anchor="end" class="axis">0.2</text>
<line x1="86" y1="289.80" x2="1098" y2="289.80" stroke="#E6EAF2" stroke-width="1"/>
<text x="68" y="293.80" text-anchor="end" class="axis">0.4</text>
<line x1="86" y1="140.70" x2="1098" y2="140.70" stroke="#E6EAF2" stroke-width="1"/>
<text x="68" y="144.70" text-anchor="end" class="axis">0.6</text>
<line x1="86" y1="-8.40" x2="1098" y2="-8.40" stroke="#E6EAF2" stroke-width="1"/>
<text x="68" y="-4.40" text-anchor="end" class="axis">0.8</text>
<line x1="86.00" y1="112" x2="86.00" y2="588" stroke="#F0F3F8" stroke-width="1"/>
<text x="86.00" y="618" text-anchor="middle" class="axis">1</text>
<line x1="363.03" y1="112" x2="363.03" y2="588" stroke="#F0F3F8" stroke-width="1"/>
<text x="363.03" y="618" text-anchor="middle" class="axis">50</text>
<line x1="645.71" y1="112" x2="645.71" y2="588" stroke="#F0F3F8" stroke-width="1"/>
<text x="645.71" y="618" text-anchor="middle" class="axis">100</text>
<line x1="928.39" y1="112" x2="928.39" y2="588" stroke="#F0F3F8" stroke-width="1"/>
<text x="928.39" y="618" text-anchor="middle" class="axis">150</text>
<line x1="1098.00" y1="112" x2="1098.00" y2="588" stroke="#F0F3F8" stroke-width="1"/>
<text x="1098.00" y="618" text-anchor="middle" class="axis">180</text>
<line x1="86" y1="588" x2="1098" y2="588" stroke="#98A2B3" stroke-width="1.4"/>
<line x1="86" y1="112" x2="86" y2="588" stroke="#98A2B3" stroke-width="1.4"/>
<text x="590.0" y="652" text-anchor="middle" class="label">Training episode</text>
<text x="28" y="350.0" text-anchor="middle" transform="rotate(-90 28 350.0)" class="label">Mean episode reward</text>
<line x1="86" y1="404.98" x2="1098" y2="404.98" stroke="#F59E0B" stroke-width="2" stroke-dasharray="8 6"/>
<text x="1108" y="408.98" class="small">always-accept bot 0.245</text>
<line x1="86" y1="541.56" x2="1098" y2="541.56" stroke="#12B76A" stroke-width="2" stroke-dasharray="5 6"/>
<text x="1108" y="545.56" class="small">greedy bot 0.062</text>
<line x1="86" y1="201.46" x2="1098" y2="201.46" stroke="#D92D20" stroke-width="2"/>
<text x="1108" y="205.46" class="small">expert ceiling 0.518</text>
<polygon points="86.00,503.54 136.88,503.54 193.42,478.56 249.96,478.56 306.49,478.56 363.03,478.56 419.56,478.56 476.10,382.02 532.64,382.02 589.17,382.02 645.71,382.02 702.25,382.02 758.78,382.02 815.32,360.40 871.85,360.40 928.39,360.40 984.93,253.27 1041.46,253.27 1098.00,253.27 1098.00,588.00 86.00,588.00" fill="url(#rewardArea)"/>
<polyline points="86.00,503.54 136.88,503.54 193.42,478.56 249.96,478.56 306.49,478.56 363.03,478.56 419.56,478.56 476.10,382.02 532.64,382.02 589.17,382.02 645.71,382.02 702.25,382.02 758.78,382.02 815.32,360.40 871.85,360.40 928.39,360.40 984.93,253.27 1041.46,253.27 1098.00,253.27" fill="none" stroke="#2F6BFF" stroke-width="5" stroke-linecap="round" stroke-linejoin="round"/>
<polyline points="86.00,476.24 136.88,483.66 193.42,464.81 249.96,442.34 306.49,417.78 363.03,413.21 419.56,405.22 476.10,336.67 532.64,332.86 589.17,332.29 645.71,332.10 702.25,329.82 758.78,329.82 815.32,345.62 871.85,350.76 928.39,337.24 984.93,258.99 1041.46,257.08 1098.00,254.42" fill="none" stroke="#7A5AF8" stroke-width="3" stroke-linecap="round" stroke-linejoin="round" stroke-dasharray="9 7"/>
<line x1="363.03" y1="112" x2="363.03" y2="588" stroke="#CBD5E1" stroke-width="1.5" stroke-dasharray="4 6"/>
<circle cx="363.03" cy="478.56" r="6" fill="#2F6BFF" stroke="#FFFFFF" stroke-width="3"/>
<text x="379.03" y="460.56" text-anchor="start" class="label">Episode 50</text>
<text x="379.03" y="476.56" text-anchor="start" class="callout">basic structure learned</text>
<line x1="928.39" y1="112" x2="928.39" y2="588" stroke="#CBD5E1" stroke-width="1.5" stroke-dasharray="4 6"/>
<circle cx="928.39" cy="360.40" r="6" fill="#2F6BFF" stroke="#FFFFFF" stroke-width="3"/>
<text x="912.39" y="342.40" text-anchor="end" class="label">Episode 150</text>
<text x="912.39" y="358.40" text-anchor="end" class="callout">beats bots, reaches ceiling</text>
<circle cx="94" cy="616" r="5" fill="#2F6BFF"/>
<text x="106" y="620" class="small">agent reward curve starts at 0.113</text>
<line x1="336" y1="616" x2="374" y2="616" stroke="#7A5AF8" stroke-width="3" stroke-dasharray="9 7"/>
<text x="386" y="620" class="small">judge bonus trend, scaled for comparison</text>
<text x="1098" y="620" text-anchor="end" class="small">70% deterministic reward core + optional judge bonus</text>
</svg>