<?xml version="1.0" encoding="utf-8" standalone="no"?>
<!DOCTYPE svg PUBLIC "-//W3C//DTD SVG 1.1//EN"
  "http://www.w3.org/Graphics/SVG/1.1/DTD/svg11.dtd">
<svg xmlns:xlink="http://www.w3.org/1999/xlink" width="821.35625pt" height="397.053906pt" viewBox="0 0 821.35625 397.053906" xmlns="http://www.w3.org/2000/svg" version="1.1">
 <metadata>
  <rdf:RDF xmlns:dc="http://purl.org/dc/elements/1.1/" xmlns:cc="http://creativecommons.org/ns#" xmlns:rdf="http://www.w3.org/1999/02/22-rdf-syntax-ns#">
   <cc:Work>
    <dc:type rdf:resource="http://purl.org/dc/dcmitype/StillImage"/>
    <dc:date>2026-04-26T06:01:47.643271</dc:date>
    <dc:format>image/svg+xml</dc:format>
    <dc:creator>
     <cc:Agent>
      <dc:title>Matplotlib v3.10.0, https://matplotlib.org/</dc:title>
     </cc:Agent>
    </dc:creator>
   </cc:Work>
  </rdf:RDF>
 </metadata>
 <defs>
  <style type="text/css">*{stroke-linejoin: round; stroke-linecap: butt}</style>
 </defs>
 <g id="figure_1">
  <g id="patch_1">
   <path d="M 0 397.053906 
L 821.35625 397.053906 
L 821.35625 0 
L 0 0 
z
" style="fill: #f5f7fb"/>
  </g>
  <g id="axes_1">
   <g id="patch_2">
    <path d="M 50.14375 359.497656 
L 814.15625 359.497656 
L 814.15625 36.597656 
L 50.14375 36.597656 
z
" style="fill: #ffffff"/>
   </g>
   <g id="matplotlib.axis_1">
    <g id="xtick_1">
     <g id="line2d_1">
      <defs>
       <path id="mad9e14a554" d="M 0 0 
L 0 3.5 
" style="stroke: #000000; stroke-width: 0.8"/>
      </defs>
      <g>
       <use xlink:href="#mad9e14a554" x="82.548658" y="359.497656" style="stroke: #000000; stroke-width: 0.8"/>
      </g>
     </g>
     <g id="text_1">
      <!-- 0 -->
      <g transform="translate(79.367408 374.096094) scale(0.1 -0.1)">
       <defs>
        <path id="DejaVuSans-30" d="M 2034 4250 
Q 1547 4250 1301 3770 
Q 1056 3291 1056 2328 
Q 1056 1369 1301 889 
Q 1547 409 2034 409 
Q 2525 409 2770 889 
Q 3016 1369 3016 2328 
Q 3016 3291 2770 3770 
Q 2525 4250 2034 4250 
z
M 2034 4750 
Q 2819 4750 3233 4129 
Q 3647 3509 3647 2328 
Q 3647 1150 3233 529 
Q 2819 -91 2034 -91 
Q 1250 -91 836 529 
Q 422 1150 422 2328 
Q 422 3509 836 4129 
Q 1250 4750 2034 4750 
z
" transform="scale(0.015625)"/>
       </defs>
       <use xlink:href="#DejaVuSans-30"/>
      </g>
     </g>
    </g>
    <g id="xtick_2">
     <g id="line2d_2">
      <g>
       <use xlink:href="#mad9e14a554" x="198.695284" y="359.497656" style="stroke: #000000; stroke-width: 0.8"/>
      </g>
     </g>
     <g id="text_2">
      <!-- 50 -->
      <g transform="translate(192.332784 374.096094) scale(0.1 -0.1)">
       <defs>
        <path id="DejaVuSans-35" d="M 691 4666 
L 3169 4666 
L 3169 4134 
L 1269 4134 
L 1269 2991 
Q 1406 3038 1543 3061 
Q 1681 3084 1819 3084 
Q 2600 3084 3056 2656 
Q 3513 2228 3513 1497 
Q 3513 744 3044 326 
Q 2575 -91 1722 -91 
Q 1428 -91 1123 -41 
Q 819 9 494 109 
L 494 744 
Q 775 591 1075 516 
Q 1375 441 1709 441 
Q 2250 441 2565 725 
Q 2881 1009 2881 1497 
Q 2881 1984 2565 2268 
Q 2250 2553 1709 2553 
Q 1456 2553 1204 2497 
Q 953 2441 691 2322 
L 691 4666 
z
" transform="scale(0.015625)"/>
       </defs>
       <use xlink:href="#DejaVuSans-35"/>
       <use xlink:href="#DejaVuSans-30" transform="translate(63.623047 0)"/>
      </g>
     </g>
    </g>
    <g id="xtick_3">
     <g id="line2d_3">
      <g>
       <use xlink:href="#mad9e14a554" x="314.841909" y="359.497656" style="stroke: #000000; stroke-width: 0.8"/>
      </g>
     </g>
     <g id="text_3">
      <!-- 100 -->
      <g transform="translate(305.298159 374.096094) scale(0.1 -0.1)">
       <defs>
        <path id="DejaVuSans-31" d="M 794 531 
L 1825 531 
L 1825 4091 
L 703 3866 
L 703 4441 
L 1819 4666 
L 2450 4666 
L 2450 531 
L 3481 531 
L 3481 0 
L 794 0 
L 794 531 
z
" transform="scale(0.015625)"/>
       </defs>
       <use xlink:href="#DejaVuSans-31"/>
       <use xlink:href="#DejaVuSans-30" transform="translate(63.623047 0)"/>
       <use xlink:href="#DejaVuSans-30" transform="translate(127.246094 0)"/>
      </g>
     </g>
    </g>
    <g id="xtick_4">
     <g id="line2d_4">
      <g>
       <use xlink:href="#mad9e14a554" x="430.988534" y="359.497656" style="stroke: #000000; stroke-width: 0.8"/>
      </g>
     </g>
     <g id="text_4">
      <!-- 150 -->
      <g transform="translate(421.444784 374.096094) scale(0.1 -0.1)">
       <use xlink:href="#DejaVuSans-31"/>
       <use xlink:href="#DejaVuSans-35" transform="translate(63.623047 0)"/>
       <use xlink:href="#DejaVuSans-30" transform="translate(127.246094 0)"/>
      </g>
     </g>
    </g>
    <g id="xtick_5">
     <g id="line2d_5">
      <g>
       <use xlink:href="#mad9e14a554" x="547.135159" y="359.497656" style="stroke: #000000; stroke-width: 0.8"/>
      </g>
     </g>
     <g id="text_5">
      <!-- 200 -->
      <g transform="translate(537.591409 374.096094) scale(0.1 -0.1)">
       <defs>
        <path id="DejaVuSans-32" d="M 1228 531 
L 3431 531 
L 3431 0 
L 469 0 
L 469 531 
Q 828 903 1448 1529 
Q 2069 2156 2228 2338 
Q 2531 2678 2651 2914 
Q 2772 3150 2772 3378 
Q 2772 3750 2511 3984 
Q 2250 4219 1831 4219 
Q 1534 4219 1204 4116 
Q 875 4013 500 3803 
L 500 4441 
Q 881 4594 1212 4672 
Q 1544 4750 1819 4750 
Q 2544 4750 2975 4387 
Q 3406 4025 3406 3419 
Q 3406 3131 3298 2873 
Q 3191 2616 2906 2266 
Q 2828 2175 2409 1742 
Q 1991 1309 1228 531 
z
" transform="scale(0.015625)"/>
       </defs>
       <use xlink:href="#DejaVuSans-32"/>
       <use xlink:href="#DejaVuSans-30" transform="translate(63.623047 0)"/>
       <use xlink:href="#DejaVuSans-30" transform="translate(127.246094 0)"/>
      </g>
     </g>
    </g>
    <g id="xtick_6">
     <g id="line2d_6">
      <g>
       <use xlink:href="#mad9e14a554" x="663.281784" y="359.497656" style="stroke: #000000; stroke-width: 0.8"/>
      </g>
     </g>
     <g id="text_6">
      <!-- 250 -->
      <g transform="translate(653.738034 374.096094) scale(0.1 -0.1)">
       <use xlink:href="#DejaVuSans-32"/>
       <use xlink:href="#DejaVuSans-35" transform="translate(63.623047 0)"/>
       <use xlink:href="#DejaVuSans-30" transform="translate(127.246094 0)"/>
      </g>
     </g>
    </g>
    <g id="xtick_7">
     <g id="line2d_7">
      <g>
       <use xlink:href="#mad9e14a554" x="779.428409" y="359.497656" style="stroke: #000000; stroke-width: 0.8"/>
      </g>
     </g>
     <g id="text_7">
      <!-- 300 -->
      <g transform="translate(769.884659 374.096094) scale(0.1 -0.1)">
       <defs>
        <path id="DejaVuSans-33" d="M 2597 2516 
Q 3050 2419 3304 2112 
Q 3559 1806 3559 1356 
Q 3559 666 3084 287 
Q 2609 -91 1734 -91 
Q 1441 -91 1130 -33 
Q 819 25 488 141 
L 488 750 
Q 750 597 1062 519 
Q 1375 441 1716 441 
Q 2309 441 2620 675 
Q 2931 909 2931 1356 
Q 2931 1769 2642 2001 
Q 2353 2234 1838 2234 
L 1294 2234 
L 1294 2753 
L 1863 2753 
Q 2328 2753 2575 2939 
Q 2822 3125 2822 3475 
Q 2822 3834 2567 4026 
Q 2313 4219 1838 4219 
Q 1578 4219 1281 4162 
Q 984 4106 628 3988 
L 628 4550 
Q 988 4650 1302 4700 
Q 1616 4750 1894 4750 
Q 2613 4750 3031 4423 
Q 3450 4097 3450 3541 
Q 3450 3153 3228 2886 
Q 3006 2619 2597 2516 
z
" transform="scale(0.015625)"/>
       </defs>
       <use xlink:href="#DejaVuSans-33"/>
       <use xlink:href="#DejaVuSans-30" transform="translate(63.623047 0)"/>
       <use xlink:href="#DejaVuSans-30" transform="translate(127.246094 0)"/>
      </g>
     </g>
    </g>
    <g id="text_8">
     <!-- GRPO step -->
     <g transform="translate(405.446094 387.774219) scale(0.1 -0.1)">
      <defs>
       <path id="DejaVuSans-47" d="M 3809 666 
L 3809 1919 
L 2778 1919 
L 2778 2438 
L 4434 2438 
L 4434 434 
Q 4069 175 3628 42 
Q 3188 -91 2688 -91 
Q 1594 -91 976 548 
Q 359 1188 359 2328 
Q 359 3472 976 4111 
Q 1594 4750 2688 4750 
Q 3144 4750 3555 4637 
Q 3966 4525 4313 4306 
L 4313 3634 
Q 3963 3931 3569 4081 
Q 3175 4231 2741 4231 
Q 1884 4231 1454 3753 
Q 1025 3275 1025 2328 
Q 1025 1384 1454 906 
Q 1884 428 2741 428 
Q 3075 428 3337 486 
Q 3600 544 3809 666 
z
" transform="scale(0.015625)"/>
       <path id="DejaVuSans-52" d="M 2841 2188 
Q 3044 2119 3236 1894 
Q 3428 1669 3622 1275 
L 4263 0 
L 3584 0 
L 2988 1197 
Q 2756 1666 2539 1819 
Q 2322 1972 1947 1972 
L 1259 1972 
L 1259 0 
L 628 0 
L 628 4666 
L 2053 4666 
Q 2853 4666 3247 4331 
Q 3641 3997 3641 3322 
Q 3641 2881 3436 2590 
Q 3231 2300 2841 2188 
z
M 1259 4147 
L 1259 2491 
L 2053 2491 
Q 2509 2491 2742 2702 
Q 2975 2913 2975 3322 
Q 2975 3731 2742 3939 
Q 2509 4147 2053 4147 
L 1259 4147 
z
" transform="scale(0.015625)"/>
       <path id="DejaVuSans-50" d="M 1259 4147 
L 1259 2394 
L 2053 2394 
Q 2494 2394 2734 2622 
Q 2975 2850 2975 3272 
Q 2975 3691 2734 3919 
Q 2494 4147 2053 4147 
L 1259 4147 
z
M 628 4666 
L 2053 4666 
Q 2838 4666 3239 4311 
Q 3641 3956 3641 3272 
Q 3641 2581 3239 2228 
Q 2838 1875 2053 1875 
L 1259 1875 
L 1259 0 
L 628 0 
L 628 4666 
z
" transform="scale(0.015625)"/>
       <path id="DejaVuSans-4f" d="M 2522 4238 
Q 1834 4238 1429 3725 
Q 1025 3213 1025 2328 
Q 1025 1447 1429 934 
Q 1834 422 2522 422 
Q 3209 422 3611 934 
Q 4013 1447 4013 2328 
Q 4013 3213 3611 3725 
Q 3209 4238 2522 4238 
z
M 2522 4750 
Q 3503 4750 4090 4092 
Q 4678 3434 4678 2328 
Q 4678 1225 4090 567 
Q 3503 -91 2522 -91 
Q 1538 -91 948 565 
Q 359 1222 359 2328 
Q 359 3434 948 4092 
Q 1538 4750 2522 4750 
z
" transform="scale(0.015625)"/>
       <path id="DejaVuSans-20" transform="scale(0.015625)"/>
       <path id="DejaVuSans-73" d="M 2834 3397 
L 2834 2853 
Q 2591 2978 2328 3040 
Q 2066 3103 1784 3103 
Q 1356 3103 1142 2972 
Q 928 2841 928 2578 
Q 928 2378 1081 2264 
Q 1234 2150 1697 2047 
L 1894 2003 
Q 2506 1872 2764 1633 
Q 3022 1394 3022 966 
Q 3022 478 2636 193 
Q 2250 -91 1575 -91 
Q 1294 -91 989 -36 
Q 684 19 347 128 
L 347 722 
Q 666 556 975 473 
Q 1284 391 1588 391 
Q 1994 391 2212 530 
Q 2431 669 2431 922 
Q 2431 1156 2273 1281 
Q 2116 1406 1581 1522 
L 1381 1569 
Q 847 1681 609 1914 
Q 372 2147 372 2553 
Q 372 3047 722 3315 
Q 1072 3584 1716 3584 
Q 2034 3584 2315 3537 
Q 2597 3491 2834 3397 
z
" transform="scale(0.015625)"/>
       <path id="DejaVuSans-74" d="M 1172 4494 
L 1172 3500 
L 2356 3500 
L 2356 3053 
L 1172 3053 
L 1172 1153 
Q 1172 725 1289 603 
Q 1406 481 1766 481 
L 2356 481 
L 2356 0 
L 1766 0 
Q 1100 0 847 248 
Q 594 497 594 1153 
L 594 3053 
L 172 3053 
L 172 3500 
L 594 3500 
L 594 4494 
L 1172 4494 
z
" transform="scale(0.015625)"/>
       <path id="DejaVuSans-65" d="M 3597 1894 
L 3597 1613 
L 953 1613 
Q 991 1019 1311 708 
Q 1631 397 2203 397 
Q 2534 397 2845 478 
Q 3156 559 3463 722 
L 3463 178 
Q 3153 47 2828 -22 
Q 2503 -91 2169 -91 
Q 1331 -91 842 396 
Q 353 884 353 1716 
Q 353 2575 817 3079 
Q 1281 3584 2069 3584 
Q 2775 3584 3186 3129 
Q 3597 2675 3597 1894 
z
M 3022 2063 
Q 3016 2534 2758 2815 
Q 2500 3097 2075 3097 
Q 1594 3097 1305 2825 
Q 1016 2553 972 2059 
L 3022 2063 
z
" transform="scale(0.015625)"/>
       <path id="DejaVuSans-70" d="M 1159 525 
L 1159 -1331 
L 581 -1331 
L 581 3500 
L 1159 3500 
L 1159 2969 
Q 1341 3281 1617 3432 
Q 1894 3584 2278 3584 
Q 2916 3584 3314 3078 
Q 3713 2572 3713 1747 
Q 3713 922 3314 415 
Q 2916 -91 2278 -91 
Q 1894 -91 1617 61 
Q 1341 213 1159 525 
z
M 3116 1747 
Q 3116 2381 2855 2742 
Q 2594 3103 2138 3103 
Q 1681 3103 1420 2742 
Q 1159 2381 1159 1747 
Q 1159 1113 1420 752 
Q 1681 391 2138 391 
Q 2594 391 2855 752 
Q 3116 1113 3116 1747 
z
" transform="scale(0.015625)"/>
      </defs>
      <use xlink:href="#DejaVuSans-47"/>
      <use xlink:href="#DejaVuSans-52" transform="translate(77.490234 0)"/>
      <use xlink:href="#DejaVuSans-50" transform="translate(146.972656 0)"/>
      <use xlink:href="#DejaVuSans-4f" transform="translate(207.275391 0)"/>
      <use xlink:href="#DejaVuSans-20" transform="translate(285.986328 0)"/>
      <use xlink:href="#DejaVuSans-73" transform="translate(317.773438 0)"/>
      <use xlink:href="#DejaVuSans-74" transform="translate(369.873047 0)"/>
      <use xlink:href="#DejaVuSans-65" transform="translate(409.082031 0)"/>
      <use xlink:href="#DejaVuSans-70" transform="translate(470.605469 0)"/>
     </g>
    </g>
   </g>
   <g id="matplotlib.axis_2">
    <g id="ytick_1">
     <g id="line2d_8">
      <path d="M 50.14375 344.820384 
L 814.15625 344.820384 
" clip-path="url(#pf6aa8779b1)" style="fill: none; stroke: #e2e8f0; stroke-linecap: square"/>
     </g>
     <g id="line2d_9">
      <defs>
       <path id="m6ebc944ed0" d="M 0 0 
L -3.5 0 
" style="stroke: #000000; stroke-width: 0.8"/>
      </defs>
      <g>
       <use xlink:href="#m6ebc944ed0" x="50.14375" y="344.820384" style="stroke: #000000; stroke-width: 0.8"/>
      </g>
     </g>
     <g id="text_9">
      <!-- 0.00 -->
      <g transform="translate(20.878125 348.619602) scale(0.1 -0.1)">
       <defs>
        <path id="DejaVuSans-2e" d="M 684 794 
L 1344 794 
L 1344 0 
L 684 0 
L 684 794 
z
" transform="scale(0.015625)"/>
       </defs>
       <use xlink:href="#DejaVuSans-30"/>
       <use xlink:href="#DejaVuSans-2e" transform="translate(63.623047 0)"/>
       <use xlink:href="#DejaVuSans-30" transform="translate(95.410156 0)"/>
       <use xlink:href="#DejaVuSans-30" transform="translate(159.033203 0)"/>
      </g>
     </g>
    </g>
    <g id="ytick_2">
     <g id="line2d_10">
      <path d="M 50.14375 284.636795 
L 814.15625 284.636795 
" clip-path="url(#pf6aa8779b1)" style="fill: none; stroke: #e2e8f0; stroke-linecap: square"/>
     </g>
     <g id="line2d_11">
      <g>
       <use xlink:href="#m6ebc944ed0" x="50.14375" y="284.636795" style="stroke: #000000; stroke-width: 0.8"/>
      </g>
     </g>
     <g id="text_10">
      <!-- 0.04 -->
      <g transform="translate(20.878125 288.436013) scale(0.1 -0.1)">
       <defs>
        <path id="DejaVuSans-34" d="M 2419 4116 
L 825 1625 
L 2419 1625 
L 2419 4116 
z
M 2253 4666 
L 3047 4666 
L 3047 1625 
L 3713 1625 
L 3713 1100 
L 3047 1100 
L 3047 0 
L 2419 0 
L 2419 1100 
L 313 1100 
L 313 1709 
L 2253 4666 
z
" transform="scale(0.015625)"/>
       </defs>
       <use xlink:href="#DejaVuSans-30"/>
       <use xlink:href="#DejaVuSans-2e" transform="translate(63.623047 0)"/>
       <use xlink:href="#DejaVuSans-30" transform="translate(95.410156 0)"/>
       <use xlink:href="#DejaVuSans-34" transform="translate(159.033203 0)"/>
      </g>
     </g>
    </g>
    <g id="ytick_3">
     <g id="line2d_12">
      <path d="M 50.14375 224.453206 
L 814.15625 224.453206 
" clip-path="url(#pf6aa8779b1)" style="fill: none; stroke: #e2e8f0; stroke-linecap: square"/>
     </g>
     <g id="line2d_13">
      <g>
       <use xlink:href="#m6ebc944ed0" x="50.14375" y="224.453206" style="stroke: #000000; stroke-width: 0.8"/>
      </g>
     </g>
     <g id="text_11">
      <!-- 0.08 -->
      <g transform="translate(20.878125 228.252425) scale(0.1 -0.1)">
       <defs>
        <path id="DejaVuSans-38" d="M 2034 2216 
Q 1584 2216 1326 1975 
Q 1069 1734 1069 1313 
Q 1069 891 1326 650 
Q 1584 409 2034 409 
Q 2484 409 2743 651 
Q 3003 894 3003 1313 
Q 3003 1734 2745 1975 
Q 2488 2216 2034 2216 
z
M 1403 2484 
Q 997 2584 770 2862 
Q 544 3141 544 3541 
Q 544 4100 942 4425 
Q 1341 4750 2034 4750 
Q 2731 4750 3128 4425 
Q 3525 4100 3525 3541 
Q 3525 3141 3298 2862 
Q 3072 2584 2669 2484 
Q 3125 2378 3379 2068 
Q 3634 1759 3634 1313 
Q 3634 634 3220 271 
Q 2806 -91 2034 -91 
Q 1263 -91 848 271 
Q 434 634 434 1313 
Q 434 1759 690 2068 
Q 947 2378 1403 2484 
z
M 1172 3481 
Q 1172 3119 1398 2916 
Q 1625 2713 2034 2713 
Q 2441 2713 2670 2916 
Q 2900 3119 2900 3481 
Q 2900 3844 2670 4047 
Q 2441 4250 2034 4250 
Q 1625 4250 1398 4047 
Q 1172 3844 1172 3481 
z
" transform="scale(0.015625)"/>
       </defs>
       <use xlink:href="#DejaVuSans-30"/>
       <use xlink:href="#DejaVuSans-2e" transform="translate(63.623047 0)"/>
       <use xlink:href="#DejaVuSans-30" transform="translate(95.410156 0)"/>
       <use xlink:href="#DejaVuSans-38" transform="translate(159.033203 0)"/>
      </g>
     </g>
    </g>
    <g id="ytick_4">
     <g id="line2d_14">
      <path d="M 50.14375 164.269617 
L 814.15625 164.269617 
" clip-path="url(#pf6aa8779b1)" style="fill: none; stroke: #e2e8f0; stroke-linecap: square"/>
     </g>
     <g id="line2d_15">
      <g>
       <use xlink:href="#m6ebc944ed0" x="50.14375" y="164.269617" style="stroke: #000000; stroke-width: 0.8"/>
      </g>
     </g>
     <g id="text_12">
      <!-- 0.12 -->
      <g transform="translate(20.878125 168.068836) scale(0.1 -0.1)">
       <use xlink:href="#DejaVuSans-30"/>
       <use xlink:href="#DejaVuSans-2e" transform="translate(63.623047 0)"/>
       <use xlink:href="#DejaVuSans-31" transform="translate(95.410156 0)"/>
       <use xlink:href="#DejaVuSans-32" transform="translate(159.033203 0)"/>
      </g>
     </g>
    </g>
    <g id="ytick_5">
     <g id="line2d_16">
      <path d="M 50.14375 104.086028 
L 814.15625 104.086028 
" clip-path="url(#pf6aa8779b1)" style="fill: none; stroke: #e2e8f0; stroke-linecap: square"/>
     </g>
     <g id="line2d_17">
      <g>
       <use xlink:href="#m6ebc944ed0" x="50.14375" y="104.086028" style="stroke: #000000; stroke-width: 0.8"/>
      </g>
     </g>
     <g id="text_13">
      <!-- 0.16 -->
      <g transform="translate(20.878125 107.885247) scale(0.1 -0.1)">
       <defs>
        <path id="DejaVuSans-36" d="M 2113 2584 
Q 1688 2584 1439 2293 
Q 1191 2003 1191 1497 
Q 1191 994 1439 701 
Q 1688 409 2113 409 
Q 2538 409 2786 701 
Q 3034 994 3034 1497 
Q 3034 2003 2786 2293 
Q 2538 2584 2113 2584 
z
M 3366 4563 
L 3366 3988 
Q 3128 4100 2886 4159 
Q 2644 4219 2406 4219 
Q 1781 4219 1451 3797 
Q 1122 3375 1075 2522 
Q 1259 2794 1537 2939 
Q 1816 3084 2150 3084 
Q 2853 3084 3261 2657 
Q 3669 2231 3669 1497 
Q 3669 778 3244 343 
Q 2819 -91 2113 -91 
Q 1303 -91 875 529 
Q 447 1150 447 2328 
Q 447 3434 972 4092 
Q 1497 4750 2381 4750 
Q 2619 4750 2861 4703 
Q 3103 4656 3366 4563 
z
" transform="scale(0.015625)"/>
       </defs>
       <use xlink:href="#DejaVuSans-30"/>
       <use xlink:href="#DejaVuSans-2e" transform="translate(63.623047 0)"/>
       <use xlink:href="#DejaVuSans-31" transform="translate(95.410156 0)"/>
       <use xlink:href="#DejaVuSans-36" transform="translate(159.033203 0)"/>
      </g>
     </g>
    </g>
    <g id="ytick_6">
     <g id="line2d_18">
      <path d="M 50.14375 43.902439 
L 814.15625 43.902439 
" clip-path="url(#pf6aa8779b1)" style="fill: none; stroke: #e2e8f0; stroke-linecap: square"/>
     </g>
     <g id="line2d_19">
      <g>
       <use xlink:href="#m6ebc944ed0" x="50.14375" y="43.902439" style="stroke: #000000; stroke-width: 0.8"/>
      </g>
     </g>
     <g id="text_14">
      <!-- 0.20 -->
      <g transform="translate(20.878125 47.701658) scale(0.1 -0.1)">
       <use xlink:href="#DejaVuSans-30"/>
       <use xlink:href="#DejaVuSans-2e" transform="translate(63.623047 0)"/>
       <use xlink:href="#DejaVuSans-32" transform="translate(95.410156 0)"/>
       <use xlink:href="#DejaVuSans-30" transform="translate(159.033203 0)"/>
      </g>
     </g>
    </g>
    <g id="text_15">
     <!-- Reward (env + format bonus) -->
     <g transform="translate(14.798438 272.178906) rotate(-90) scale(0.1 -0.1)">
      <defs>
       <path id="DejaVuSans-77" d="M 269 3500 
L 844 3500 
L 1563 769 
L 2278 3500 
L 2956 3500 
L 3675 769 
L 4391 3500 
L 4966 3500 
L 4050 0 
L 3372 0 
L 2619 2869 
L 1863 0 
L 1184 0 
L 269 3500 
z
" transform="scale(0.015625)"/>
       <path id="DejaVuSans-61" d="M 2194 1759 
Q 1497 1759 1228 1600 
Q 959 1441 959 1056 
Q 959 750 1161 570 
Q 1363 391 1709 391 
Q 2188 391 2477 730 
Q 2766 1069 2766 1631 
L 2766 1759 
L 2194 1759 
z
M 3341 1997 
L 3341 0 
L 2766 0 
L 2766 531 
Q 2569 213 2275 61 
Q 1981 -91 1556 -91 
Q 1019 -91 701 211 
Q 384 513 384 1019 
Q 384 1609 779 1909 
Q 1175 2209 1959 2209 
L 2766 2209 
L 2766 2266 
Q 2766 2663 2505 2880 
Q 2244 3097 1772 3097 
Q 1472 3097 1187 3025 
Q 903 2953 641 2809 
L 641 3341 
Q 956 3463 1253 3523 
Q 1550 3584 1831 3584 
Q 2591 3584 2966 3190 
Q 3341 2797 3341 1997 
z
" transform="scale(0.015625)"/>
       <path id="DejaVuSans-72" d="M 2631 2963 
Q 2534 3019 2420 3045 
Q 2306 3072 2169 3072 
Q 1681 3072 1420 2755 
Q 1159 2438 1159 1844 
L 1159 0 
L 581 0 
L 581 3500 
L 1159 3500 
L 1159 2956 
Q 1341 3275 1631 3429 
Q 1922 3584 2338 3584 
Q 2397 3584 2469 3576 
Q 2541 3569 2628 3553 
L 2631 2963 
z
" transform="scale(0.015625)"/>
       <path id="DejaVuSans-64" d="M 2906 2969 
L 2906 4863 
L 3481 4863 
L 3481 0 
L 2906 0 
L 2906 525 
Q 2725 213 2448 61 
Q 2172 -91 1784 -91 
Q 1150 -91 751 415 
Q 353 922 353 1747 
Q 353 2572 751 3078 
Q 1150 3584 1784 3584 
Q 2172 3584 2448 3432 
Q 2725 3281 2906 2969 
z
M 947 1747 
Q 947 1113 1208 752 
Q 1469 391 1925 391 
Q 2381 391 2643 752 
Q 2906 1113 2906 1747 
Q 2906 2381 2643 2742 
Q 2381 3103 1925 3103 
Q 1469 3103 1208 2742 
Q 947 2381 947 1747 
z
" transform="scale(0.015625)"/>
       <path id="DejaVuSans-28" d="M 1984 4856 
Q 1566 4138 1362 3434 
Q 1159 2731 1159 2009 
Q 1159 1288 1364 580 
Q 1569 -128 1984 -844 
L 1484 -844 
Q 1016 -109 783 600 
Q 550 1309 550 2009 
Q 550 2706 781 3412 
Q 1013 4119 1484 4856 
L 1984 4856 
z
" transform="scale(0.015625)"/>
       <path id="DejaVuSans-6e" d="M 3513 2113 
L 3513 0 
L 2938 0 
L 2938 2094 
Q 2938 2591 2744 2837 
Q 2550 3084 2163 3084 
Q 1697 3084 1428 2787 
Q 1159 2491 1159 1978 
L 1159 0 
L 581 0 
L 581 3500 
L 1159 3500 
L 1159 2956 
Q 1366 3272 1645 3428 
Q 1925 3584 2291 3584 
Q 2894 3584 3203 3211 
Q 3513 2838 3513 2113 
z
" transform="scale(0.015625)"/>
       <path id="DejaVuSans-76" d="M 191 3500 
L 800 3500 
L 1894 563 
L 2988 3500 
L 3597 3500 
L 2284 0 
L 1503 0 
L 191 3500 
z
" transform="scale(0.015625)"/>
       <path id="DejaVuSans-2b" d="M 2944 4013 
L 2944 2272 
L 4684 2272 
L 4684 1741 
L 2944 1741 
L 2944 0 
L 2419 0 
L 2419 1741 
L 678 1741 
L 678 2272 
L 2419 2272 
L 2419 4013 
L 2944 4013 
z
" transform="scale(0.015625)"/>
       <path id="DejaVuSans-66" d="M 2375 4863 
L 2375 4384 
L 1825 4384 
Q 1516 4384 1395 4259 
Q 1275 4134 1275 3809 
L 1275 3500 
L 2222 3500 
L 2222 3053 
L 1275 3053 
L 1275 0 
L 697 0 
L 697 3053 
L 147 3053 
L 147 3500 
L 697 3500 
L 697 3744 
Q 697 4328 969 4595 
Q 1241 4863 1831 4863 
L 2375 4863 
z
" transform="scale(0.015625)"/>
       <path id="DejaVuSans-6f" d="M 1959 3097 
Q 1497 3097 1228 2736 
Q 959 2375 959 1747 
Q 959 1119 1226 758 
Q 1494 397 1959 397 
Q 2419 397 2687 759 
Q 2956 1122 2956 1747 
Q 2956 2369 2687 2733 
Q 2419 3097 1959 3097 
z
M 1959 3584 
Q 2709 3584 3137 3096 
Q 3566 2609 3566 1747 
Q 3566 888 3137 398 
Q 2709 -91 1959 -91 
Q 1206 -91 779 398 
Q 353 888 353 1747 
Q 353 2609 779 3096 
Q 1206 3584 1959 3584 
z
" transform="scale(0.015625)"/>
       <path id="DejaVuSans-6d" d="M 3328 2828 
Q 3544 3216 3844 3400 
Q 4144 3584 4550 3584 
Q 5097 3584 5394 3201 
Q 5691 2819 5691 2113 
L 5691 0 
L 5113 0 
L 5113 2094 
Q 5113 2597 4934 2840 
Q 4756 3084 4391 3084 
Q 3944 3084 3684 2787 
Q 3425 2491 3425 1978 
L 3425 0 
L 2847 0 
L 2847 2094 
Q 2847 2600 2669 2842 
Q 2491 3084 2119 3084 
Q 1678 3084 1418 2786 
Q 1159 2488 1159 1978 
L 1159 0 
L 581 0 
L 581 3500 
L 1159 3500 
L 1159 2956 
Q 1356 3278 1631 3431 
Q 1906 3584 2284 3584 
Q 2666 3584 2933 3390 
Q 3200 3197 3328 2828 
z
" transform="scale(0.015625)"/>
       <path id="DejaVuSans-62" d="M 3116 1747 
Q 3116 2381 2855 2742 
Q 2594 3103 2138 3103 
Q 1681 3103 1420 2742 
Q 1159 2381 1159 1747 
Q 1159 1113 1420 752 
Q 1681 391 2138 391 
Q 2594 391 2855 752 
Q 3116 1113 3116 1747 
z
M 1159 2969 
Q 1341 3281 1617 3432 
Q 1894 3584 2278 3584 
Q 2916 3584 3314 3078 
Q 3713 2572 3713 1747 
Q 3713 922 3314 415 
Q 2916 -91 2278 -91 
Q 1894 -91 1617 61 
Q 1341 213 1159 525 
L 1159 0 
L 581 0 
L 581 4863 
L 1159 4863 
L 1159 2969 
z
" transform="scale(0.015625)"/>
       <path id="DejaVuSans-75" d="M 544 1381 
L 544 3500 
L 1119 3500 
L 1119 1403 
Q 1119 906 1312 657 
Q 1506 409 1894 409 
Q 2359 409 2629 706 
Q 2900 1003 2900 1516 
L 2900 3500 
L 3475 3500 
L 3475 0 
L 2900 0 
L 2900 538 
Q 2691 219 2414 64 
Q 2138 -91 1772 -91 
Q 1169 -91 856 284 
Q 544 659 544 1381 
z
M 1991 3584 
L 1991 3584 
z
" transform="scale(0.015625)"/>
       <path id="DejaVuSans-29" d="M 513 4856 
L 1013 4856 
Q 1481 4119 1714 3412 
Q 1947 2706 1947 2009 
Q 1947 1309 1714 600 
Q 1481 -109 1013 -844 
L 513 -844 
Q 928 -128 1133 580 
Q 1338 1288 1338 2009 
Q 1338 2731 1133 3434 
Q 928 4138 513 4856 
z
" transform="scale(0.015625)"/>
      </defs>
      <use xlink:href="#DejaVuSans-52"/>
      <use xlink:href="#DejaVuSans-65" transform="translate(64.982422 0)"/>
      <use xlink:href="#DejaVuSans-77" transform="translate(126.505859 0)"/>
      <use xlink:href="#DejaVuSans-61" transform="translate(208.292969 0)"/>
      <use xlink:href="#DejaVuSans-72" transform="translate(269.572266 0)"/>
      <use xlink:href="#DejaVuSans-64" transform="translate(308.935547 0)"/>
      <use xlink:href="#DejaVuSans-20" transform="translate(372.412109 0)"/>
      <use xlink:href="#DejaVuSans-28" transform="translate(404.199219 0)"/>
      <use xlink:href="#DejaVuSans-65" transform="translate(443.212891 0)"/>
      <use xlink:href="#DejaVuSans-6e" transform="translate(504.736328 0)"/>
      <use xlink:href="#DejaVuSans-76" transform="translate(568.115234 0)"/>
      <use xlink:href="#DejaVuSans-20" transform="translate(627.294922 0)"/>
      <use xlink:href="#DejaVuSans-2b" transform="translate(659.082031 0)"/>
      <use xlink:href="#DejaVuSans-20" transform="translate(742.871094 0)"/>
      <use xlink:href="#DejaVuSans-66" transform="translate(774.658203 0)"/>
      <use xlink:href="#DejaVuSans-6f" transform="translate(809.863281 0)"/>
      <use xlink:href="#DejaVuSans-72" transform="translate(871.044922 0)"/>
      <use xlink:href="#DejaVuSans-6d" transform="translate(910.408203 0)"/>
      <use xlink:href="#DejaVuSans-61" transform="translate(1007.820312 0)"/>
      <use xlink:href="#DejaVuSans-74" transform="translate(1069.099609 0)"/>
      <use xlink:href="#DejaVuSans-20" transform="translate(1108.308594 0)"/>
      <use xlink:href="#DejaVuSans-62" transform="translate(1140.095703 0)"/>
      <use xlink:href="#DejaVuSans-6f" transform="translate(1203.572266 0)"/>
      <use xlink:href="#DejaVuSans-6e" transform="translate(1264.753906 0)"/>
      <use xlink:href="#DejaVuSans-75" transform="translate(1328.132812 0)"/>
      <use xlink:href="#DejaVuSans-73" transform="translate(1391.511719 0)"/>
      <use xlink:href="#DejaVuSans-29" transform="translate(1443.611328 0)"/>
     </g>
    </g>
   </g>
   <g id="line2d_20">
    <path d="M 84.871591 298.178102 
L 94.163321 199.02564 
L 105.777983 127.25671 
L 117.392646 152.232899 
L 129.007308 154.640243 
L 140.621971 223.249534 
L 152.236633 227.161467 
L 163.851296 169.836599 
L 175.465958 123.645695 
L 187.080621 172.093484 
L 198.695284 166.376043 
L 210.309946 177.810925 
L 221.924609 140.196181 
L 233.539271 125.601661 
L 245.153934 192.706363 
L 256.768596 193.15774 
L 268.383259 51.274929 
L 279.997921 192.706363 
L 291.612584 142.453066 
L 303.227246 99.873177 
L 314.841909 116.423664 
L 326.456571 162.614568 
L 338.071234 223.700911 
L 349.685896 159.605389 
L 361.300559 115.972287 
L 372.915221 172.394402 
L 384.529884 154.790702 
L 396.144546 227.763303 
L 407.759209 186.086168 
L 419.373871 224.904583 
L 430.988534 91.898851 
L 442.603196 206.097211 
L 454.217859 103.484192 
L 465.832521 187.440299 
L 477.447184 131.168643 
L 489.061846 162.915486 
L 500.676509 163.667781 
L 512.291171 131.920938 
L 523.905834 102.731897 
L 535.520496 178.41276 
L 547.135159 156.44575 
L 558.749821 217.381634 
L 570.364484 117.928254 
L 581.979146 114.317238 
L 593.593809 160.508143 
L 605.208471 174.801745 
L 616.823134 189.697183 
L 628.437796 181.722858 
L 640.052459 239.499103 
L 651.667121 250.18169 
L 663.281784 69.630924 
L 674.896446 102.130062 
L 686.511109 107.396126 
L 698.125772 85.730034 
L 709.740434 192.706363 
L 721.355097 178.111842 
L 732.969759 201.132065 
L 744.584422 145.913622 
L 756.199084 162.012732 
L 767.813747 195.565083 
L 779.428409 105.590618 
" clip-path="url(#pf6aa8779b1)" style="fill: none; stroke: #7c3aed; stroke-width: 2.6; stroke-linecap: square"/>
    <defs>
     <path id="m5682cebbdb" d="M 0 1.75 
C 0.464105 1.75 0.909265 1.565609 1.237437 1.237437 
C 1.565609 0.909265 1.75 0.464105 1.75 0 
C 1.75 -0.464105 1.565609 -0.909265 1.237437 -1.237437 
C 0.909265 -1.565609 0.464105 -1.75 0 -1.75 
C -0.464105 -1.75 -0.909265 -1.565609 -1.237437 -1.237437 
C -1.565609 -0.909265 -1.75 -0.464105 -1.75 0 
C -1.75 0.464105 -1.565609 0.909265 -1.237437 1.237437 
C -0.909265 1.565609 -0.464105 1.75 0 1.75 
z
" style="stroke: #7c3aed"/>
    </defs>
    <g clip-path="url(#pf6aa8779b1)">
     <use xlink:href="#m5682cebbdb" x="84.871591" y="298.178102" style="fill: #7c3aed; stroke: #7c3aed"/>
     <use xlink:href="#m5682cebbdb" x="94.163321" y="199.02564" style="fill: #7c3aed; stroke: #7c3aed"/>
     <use xlink:href="#m5682cebbdb" x="105.777983" y="127.25671" style="fill: #7c3aed; stroke: #7c3aed"/>
     <use xlink:href="#m5682cebbdb" x="117.392646" y="152.232899" style="fill: #7c3aed; stroke: #7c3aed"/>
     <use xlink:href="#m5682cebbdb" x="129.007308" y="154.640243" style="fill: #7c3aed; stroke: #7c3aed"/>
     <use xlink:href="#m5682cebbdb" x="140.621971" y="223.249534" style="fill: #7c3aed; stroke: #7c3aed"/>
     <use xlink:href="#m5682cebbdb" x="152.236633" y="227.161467" style="fill: #7c3aed; stroke: #7c3aed"/>
     <use xlink:href="#m5682cebbdb" x="163.851296" y="169.836599" style="fill: #7c3aed; stroke: #7c3aed"/>
     <use xlink:href="#m5682cebbdb" x="175.465958" y="123.645695" style="fill: #7c3aed; stroke: #7c3aed"/>
     <use xlink:href="#m5682cebbdb" x="187.080621" y="172.093484" style="fill: #7c3aed; stroke: #7c3aed"/>
     <use xlink:href="#m5682cebbdb" x="198.695284" y="166.376043" style="fill: #7c3aed; stroke: #7c3aed"/>
     <use xlink:href="#m5682cebbdb" x="210.309946" y="177.810925" style="fill: #7c3aed; stroke: #7c3aed"/>
     <use xlink:href="#m5682cebbdb" x="221.924609" y="140.196181" style="fill: #7c3aed; stroke: #7c3aed"/>
     <use xlink:href="#m5682cebbdb" x="233.539271" y="125.601661" style="fill: #7c3aed; stroke: #7c3aed"/>
     <use xlink:href="#m5682cebbdb" x="245.153934" y="192.706363" style="fill: #7c3aed; stroke: #7c3aed"/>
     <use xlink:href="#m5682cebbdb" x="256.768596" y="193.15774" style="fill: #7c3aed; stroke: #7c3aed"/>
     <use xlink:href="#m5682cebbdb" x="268.383259" y="51.274929" style="fill: #7c3aed; stroke: #7c3aed"/>
     <use xlink:href="#m5682cebbdb" x="279.997921" y="192.706363" style="fill: #7c3aed; stroke: #7c3aed"/>
     <use xlink:href="#m5682cebbdb" x="291.612584" y="142.453066" style="fill: #7c3aed; stroke: #7c3aed"/>
     <use xlink:href="#m5682cebbdb" x="303.227246" y="99.873177" style="fill: #7c3aed; stroke: #7c3aed"/>
     <use xlink:href="#m5682cebbdb" x="314.841909" y="116.423664" style="fill: #7c3aed; stroke: #7c3aed"/>
     <use xlink:href="#m5682cebbdb" x="326.456571" y="162.614568" style="fill: #7c3aed; stroke: #7c3aed"/>
     <use xlink:href="#m5682cebbdb" x="338.071234" y="223.700911" style="fill: #7c3aed; stroke: #7c3aed"/>
     <use xlink:href="#m5682cebbdb" x="349.685896" y="159.605389" style="fill: #7c3aed; stroke: #7c3aed"/>
     <use xlink:href="#m5682cebbdb" x="361.300559" y="115.972287" style="fill: #7c3aed; stroke: #7c3aed"/>
     <use xlink:href="#m5682cebbdb" x="372.915221" y="172.394402" style="fill: #7c3aed; stroke: #7c3aed"/>
     <use xlink:href="#m5682cebbdb" x="384.529884" y="154.790702" style="fill: #7c3aed; stroke: #7c3aed"/>
     <use xlink:href="#m5682cebbdb" x="396.144546" y="227.763303" style="fill: #7c3aed; stroke: #7c3aed"/>
     <use xlink:href="#m5682cebbdb" x="407.759209" y="186.086168" style="fill: #7c3aed; stroke: #7c3aed"/>
     <use xlink:href="#m5682cebbdb" x="419.373871" y="224.904583" style="fill: #7c3aed; stroke: #7c3aed"/>
     <use xlink:href="#m5682cebbdb" x="430.988534" y="91.898851" style="fill: #7c3aed; stroke: #7c3aed"/>
     <use xlink:href="#m5682cebbdb" x="442.603196" y="206.097211" style="fill: #7c3aed; stroke: #7c3aed"/>
     <use xlink:href="#m5682cebbdb" x="454.217859" y="103.484192" style="fill: #7c3aed; stroke: #7c3aed"/>
     <use xlink:href="#m5682cebbdb" x="465.832521" y="187.440299" style="fill: #7c3aed; stroke: #7c3aed"/>
     <use xlink:href="#m5682cebbdb" x="477.447184" y="131.168643" style="fill: #7c3aed; stroke: #7c3aed"/>
     <use xlink:href="#m5682cebbdb" x="489.061846" y="162.915486" style="fill: #7c3aed; stroke: #7c3aed"/>
     <use xlink:href="#m5682cebbdb" x="500.676509" y="163.667781" style="fill: #7c3aed; stroke: #7c3aed"/>
     <use xlink:href="#m5682cebbdb" x="512.291171" y="131.920938" style="fill: #7c3aed; stroke: #7c3aed"/>
     <use xlink:href="#m5682cebbdb" x="523.905834" y="102.731897" style="fill: #7c3aed; stroke: #7c3aed"/>
     <use xlink:href="#m5682cebbdb" x="535.520496" y="178.41276" style="fill: #7c3aed; stroke: #7c3aed"/>
     <use xlink:href="#m5682cebbdb" x="547.135159" y="156.44575" style="fill: #7c3aed; stroke: #7c3aed"/>
     <use xlink:href="#m5682cebbdb" x="558.749821" y="217.381634" style="fill: #7c3aed; stroke: #7c3aed"/>
     <use xlink:href="#m5682cebbdb" x="570.364484" y="117.928254" style="fill: #7c3aed; stroke: #7c3aed"/>
     <use xlink:href="#m5682cebbdb" x="581.979146" y="114.317238" style="fill: #7c3aed; stroke: #7c3aed"/>
     <use xlink:href="#m5682cebbdb" x="593.593809" y="160.508143" style="fill: #7c3aed; stroke: #7c3aed"/>
     <use xlink:href="#m5682cebbdb" x="605.208471" y="174.801745" style="fill: #7c3aed; stroke: #7c3aed"/>
     <use xlink:href="#m5682cebbdb" x="616.823134" y="189.697183" style="fill: #7c3aed; stroke: #7c3aed"/>
     <use xlink:href="#m5682cebbdb" x="628.437796" y="181.722858" style="fill: #7c3aed; stroke: #7c3aed"/>
     <use xlink:href="#m5682cebbdb" x="640.052459" y="239.499103" style="fill: #7c3aed; stroke: #7c3aed"/>
     <use xlink:href="#m5682cebbdb" x="651.667121" y="250.18169" style="fill: #7c3aed; stroke: #7c3aed"/>
     <use xlink:href="#m5682cebbdb" x="663.281784" y="69.630924" style="fill: #7c3aed; stroke: #7c3aed"/>
     <use xlink:href="#m5682cebbdb" x="674.896446" y="102.130062" style="fill: #7c3aed; stroke: #7c3aed"/>
     <use xlink:href="#m5682cebbdb" x="686.511109" y="107.396126" style="fill: #7c3aed; stroke: #7c3aed"/>
     <use xlink:href="#m5682cebbdb" x="698.125772" y="85.730034" style="fill: #7c3aed; stroke: #7c3aed"/>
     <use xlink:href="#m5682cebbdb" x="709.740434" y="192.706363" style="fill: #7c3aed; stroke: #7c3aed"/>
     <use xlink:href="#m5682cebbdb" x="721.355097" y="178.111842" style="fill: #7c3aed; stroke: #7c3aed"/>
     <use xlink:href="#m5682cebbdb" x="732.969759" y="201.132065" style="fill: #7c3aed; stroke: #7c3aed"/>
     <use xlink:href="#m5682cebbdb" x="744.584422" y="145.913622" style="fill: #7c3aed; stroke: #7c3aed"/>
     <use xlink:href="#m5682cebbdb" x="756.199084" y="162.012732" style="fill: #7c3aed; stroke: #7c3aed"/>
     <use xlink:href="#m5682cebbdb" x="767.813747" y="195.565083" style="fill: #7c3aed; stroke: #7c3aed"/>
     <use xlink:href="#m5682cebbdb" x="779.428409" y="105.590618" style="fill: #7c3aed; stroke: #7c3aed"/>
    </g>
   </g>
   <g id="line2d_21">
    <path d="M 84.871591 298.178102 
L 94.163321 248.601871 
L 105.777983 208.153484 
L 117.392646 194.173338 
L 129.007308 186.266719 
L 140.621971 171.281005 
L 152.236633 176.908171 
L 163.851296 185.424148 
L 175.465958 179.706708 
L 187.080621 183.197356 
L 198.695284 171.822657 
L 210.309946 161.952549 
L 221.924609 156.024465 
L 233.539271 156.415659 
L 245.153934 160.538235 
L 256.768596 165.894574 
L 268.383259 140.587375 
L 279.997921 151.089411 
L 291.612584 154.459692 
L 303.227246 135.893055 
L 314.841909 120.54624 
L 326.456571 142.814168 
L 338.071234 149.013077 
L 349.685896 152.443542 
L 361.300559 155.663364 
L 372.915221 166.857511 
L 384.529884 165.292738 
L 396.144546 166.105216 
L 407.759209 171.401372 
L 419.373871 193.187831 
L 430.988534 177.088721 
L 442.603196 187.350023 
L 454.217859 162.494201 
L 465.832521 162.765027 
L 477.447184 144.017839 
L 489.061846 158.221166 
L 500.676509 149.73528 
L 512.291171 155.422629 
L 523.905834 138.480949 
L 535.520496 147.929773 
L 547.135159 146.635825 
L 558.749821 157.378596 
L 570.364484 154.580059 
L 581.979146 156.897127 
L 593.593809 153.316204 
L 605.208471 156.987403 
L 616.823134 151.450513 
L 628.437796 164.209433 
L 640.052459 189.245806 
L 651.667121 207.180516 
L 663.281784 186.146352 
L 674.896446 168.632927 
L 686.511109 153.767581 
L 698.125772 123.013767 
L 709.740434 111.518701 
L 721.355097 133.214885 
L 732.969759 153.015286 
L 744.584422 160.718785 
L 756.199084 175.975325 
L 767.813747 176.547069 
L 779.428409 162.042824 
" clip-path="url(#pf6aa8779b1)" style="fill: none; stroke-dasharray: 8.88,3.84; stroke-dashoffset: 0; stroke: #1d4ed8; stroke-width: 2.4"/>
   </g>
   <g id="line2d_22">
    <path d="M 50.14375 344.820384 
L 814.15625 344.820384 
" clip-path="url(#pf6aa8779b1)" style="fill: none; stroke-dasharray: 1,1.65; stroke-dashoffset: 0; stroke: #94a3b8"/>
   </g>
   <g id="patch_3">
    <path d="M 50.14375 359.497656 
L 50.14375 36.597656 
" style="fill: none; stroke: #000000; stroke-width: 0.8; stroke-linejoin: miter; stroke-linecap: square"/>
   </g>
   <g id="patch_4">
    <path d="M 50.14375 359.497656 
L 814.15625 359.497656 
" style="fill: none; stroke: #000000; stroke-width: 0.8; stroke-linejoin: miter; stroke-linecap: square"/>
   </g>
   <g id="text_16">
    <!-- GRPO reward curve · Llama-3.2-3B against the live env reward -->
    <g style="fill: #0f172a" transform="translate(196.916016 18.597656) scale(0.15 -0.15)">
     <defs>
      <path id="DejaVuSans-63" d="M 3122 3366 
L 3122 2828 
Q 2878 2963 2633 3030 
Q 2388 3097 2138 3097 
Q 1578 3097 1268 2742 
Q 959 2388 959 1747 
Q 959 1106 1268 751 
Q 1578 397 2138 397 
Q 2388 397 2633 464 
Q 2878 531 3122 666 
L 3122 134 
Q 2881 22 2623 -34 
Q 2366 -91 2075 -91 
Q 1284 -91 818 406 
Q 353 903 353 1747 
Q 353 2603 823 3093 
Q 1294 3584 2113 3584 
Q 2378 3584 2631 3529 
Q 2884 3475 3122 3366 
z
" transform="scale(0.015625)"/>
      <path id="DejaVuSans-b7" d="M 684 2619 
L 1344 2619 
L 1344 1825 
L 684 1825 
L 684 2619 
z
" transform="scale(0.015625)"/>
      <path id="DejaVuSans-4c" d="M 628 4666 
L 1259 4666 
L 1259 531 
L 3531 531 
L 3531 0 
L 628 0 
L 628 4666 
z
" transform="scale(0.015625)"/>
      <path id="DejaVuSans-6c" d="M 603 4863 
L 1178 4863 
L 1178 0 
L 603 0 
L 603 4863 
z
" transform="scale(0.015625)"/>
      <path id="DejaVuSans-2d" d="M 313 2009 
L 1997 2009 
L 1997 1497 
L 313 1497 
L 313 2009 
z
" transform="scale(0.015625)"/>
      <path id="DejaVuSans-42" d="M 1259 2228 
L 1259 519 
L 2272 519 
Q 2781 519 3026 730 
Q 3272 941 3272 1375 
Q 3272 1813 3026 2020 
Q 2781 2228 2272 2228 
L 1259 2228 
z
M 1259 4147 
L 1259 2741 
L 2194 2741 
Q 2656 2741 2882 2914 
Q 3109 3088 3109 3444 
Q 3109 3797 2882 3972 
Q 2656 4147 2194 4147 
L 1259 4147 
z
M 628 4666 
L 2241 4666 
Q 2963 4666 3353 4366 
Q 3744 4066 3744 3513 
Q 3744 3084 3544 2831 
Q 3344 2578 2956 2516 
Q 3422 2416 3680 2098 
Q 3938 1781 3938 1306 
Q 3938 681 3513 340 
Q 3088 0 2303 0 
L 628 0 
L 628 4666 
z
" transform="scale(0.015625)"/>
      <path id="DejaVuSans-67" d="M 2906 1791 
Q 2906 2416 2648 2759 
Q 2391 3103 1925 3103 
Q 1463 3103 1205 2759 
Q 947 2416 947 1791 
Q 947 1169 1205 825 
Q 1463 481 1925 481 
Q 2391 481 2648 825 
Q 2906 1169 2906 1791 
z
M 3481 434 
Q 3481 -459 3084 -895 
Q 2688 -1331 1869 -1331 
Q 1566 -1331 1297 -1286 
Q 1028 -1241 775 -1147 
L 775 -588 
Q 1028 -725 1275 -790 
Q 1522 -856 1778 -856 
Q 2344 -856 2625 -561 
Q 2906 -266 2906 331 
L 2906 616 
Q 2728 306 2450 153 
Q 2172 0 1784 0 
Q 1141 0 747 490 
Q 353 981 353 1791 
Q 353 2603 747 3093 
Q 1141 3584 1784 3584 
Q 2172 3584 2450 3431 
Q 2728 3278 2906 2969 
L 2906 3500 
L 3481 3500 
L 3481 434 
z
" transform="scale(0.015625)"/>
      <path id="DejaVuSans-69" d="M 603 3500 
L 1178 3500 
L 1178 0 
L 603 0 
L 603 3500 
z
M 603 4863 
L 1178 4863 
L 1178 4134 
L 603 4134 
L 603 4863 
z
" transform="scale(0.015625)"/>
      <path id="DejaVuSans-68" d="M 3513 2113 
L 3513 0 
L 2938 0 
L 2938 2094 
Q 2938 2591 2744 2837 
Q 2550 3084 2163 3084 
Q 1697 3084 1428 2787 
Q 1159 2491 1159 1978 
L 1159 0 
L 581 0 
L 581 4863 
L 1159 4863 
L 1159 2956 
Q 1366 3272 1645 3428 
Q 1925 3584 2291 3584 
Q 2894 3584 3203 3211 
Q 3513 2838 3513 2113 
z
" transform="scale(0.015625)"/>
     </defs>
     <use xlink:href="#DejaVuSans-47"/>
     <use xlink:href="#DejaVuSans-52" transform="translate(77.490234 0)"/>
     <use xlink:href="#DejaVuSans-50" transform="translate(146.972656 0)"/>
     <use xlink:href="#DejaVuSans-4f" transform="translate(207.275391 0)"/>
     <use xlink:href="#DejaVuSans-20" transform="translate(285.986328 0)"/>
     <use xlink:href="#DejaVuSans-72" transform="translate(317.773438 0)"/>
     <use xlink:href="#DejaVuSans-65" transform="translate(356.636719 0)"/>
     <use xlink:href="#DejaVuSans-77" transform="translate(418.160156 0)"/>
     <use xlink:href="#DejaVuSans-61" transform="translate(499.947266 0)"/>
     <use xlink:href="#DejaVuSans-72" transform="translate(561.226562 0)"/>
     <use xlink:href="#DejaVuSans-64" transform="translate(600.589844 0)"/>
     <use xlink:href="#DejaVuSans-20" transform="translate(664.066406 0)"/>
     <use xlink:href="#DejaVuSans-63" transform="translate(695.853516 0)"/>
     <use xlink:href="#DejaVuSans-75" transform="translate(750.833984 0)"/>
     <use xlink:href="#DejaVuSans-72" transform="translate(814.212891 0)"/>
     <use xlink:href="#DejaVuSans-76" transform="translate(855.326172 0)"/>
     <use xlink:href="#DejaVuSans-65" transform="translate(914.505859 0)"/>
     <use xlink:href="#DejaVuSans-20" transform="translate(976.029297 0)"/>
     <use xlink:href="#DejaVuSans-b7" transform="translate(1007.816406 0)"/>
     <use xlink:href="#DejaVuSans-20" transform="translate(1039.603516 0)"/>
     <use xlink:href="#DejaVuSans-4c" transform="translate(1071.390625 0)"/>
     <use xlink:href="#DejaVuSans-6c" transform="translate(1127.103516 0)"/>
     <use xlink:href="#DejaVuSans-61" transform="translate(1154.886719 0)"/>
     <use xlink:href="#DejaVuSans-6d" transform="translate(1216.166016 0)"/>
     <use xlink:href="#DejaVuSans-61" transform="translate(1313.578125 0)"/>
     <use xlink:href="#DejaVuSans-2d" transform="translate(1374.857422 0)"/>
     <use xlink:href="#DejaVuSans-33" transform="translate(1410.941406 0)"/>
     <use xlink:href="#DejaVuSans-2e" transform="translate(1474.564453 0)"/>
     <use xlink:href="#DejaVuSans-32" transform="translate(1506.351562 0)"/>
     <use xlink:href="#DejaVuSans-2d" transform="translate(1569.974609 0)"/>
     <use xlink:href="#DejaVuSans-33" transform="translate(1606.058594 0)"/>
     <use xlink:href="#DejaVuSans-42" transform="translate(1669.681641 0)"/>
     <use xlink:href="#DejaVuSans-20" transform="translate(1738.285156 0)"/>
     <use xlink:href="#DejaVuSans-61" transform="translate(1770.072266 0)"/>
     <use xlink:href="#DejaVuSans-67" transform="translate(1831.351562 0)"/>
     <use xlink:href="#DejaVuSans-61" transform="translate(1894.828125 0)"/>
     <use xlink:href="#DejaVuSans-69" transform="translate(1956.107422 0)"/>
     <use xlink:href="#DejaVuSans-6e" transform="translate(1983.890625 0)"/>
     <use xlink:href="#DejaVuSans-73" transform="translate(2047.269531 0)"/>
     <use xlink:href="#DejaVuSans-74" transform="translate(2099.369141 0)"/>
     <use xlink:href="#DejaVuSans-20" transform="translate(2138.578125 0)"/>
     <use xlink:href="#DejaVuSans-74" transform="translate(2170.365234 0)"/>
     <use xlink:href="#DejaVuSans-68" transform="translate(2209.574219 0)"/>
     <use xlink:href="#DejaVuSans-65" transform="translate(2272.953125 0)"/>
     <use xlink:href="#DejaVuSans-20" transform="translate(2334.476562 0)"/>
     <use xlink:href="#DejaVuSans-6c" transform="translate(2366.263672 0)"/>
     <use xlink:href="#DejaVuSans-69" transform="translate(2394.046875 0)"/>
     <use xlink:href="#DejaVuSans-76" transform="translate(2421.830078 0)"/>
     <use xlink:href="#DejaVuSans-65" transform="translate(2481.009766 0)"/>
     <use xlink:href="#DejaVuSans-20" transform="translate(2542.533203 0)"/>
     <use xlink:href="#DejaVuSans-65" transform="translate(2574.320312 0)"/>
     <use xlink:href="#DejaVuSans-6e" transform="translate(2635.84375 0)"/>
     <use xlink:href="#DejaVuSans-76" transform="translate(2699.222656 0)"/>
     <use xlink:href="#DejaVuSans-20" transform="translate(2758.402344 0)"/>
     <use xlink:href="#DejaVuSans-72" transform="translate(2790.189453 0)"/>
     <use xlink:href="#DejaVuSans-65" transform="translate(2829.052734 0)"/>
     <use xlink:href="#DejaVuSans-77" transform="translate(2890.576172 0)"/>
     <use xlink:href="#DejaVuSans-61" transform="translate(2972.363281 0)"/>
     <use xlink:href="#DejaVuSans-72" transform="translate(3033.642578 0)"/>
     <use xlink:href="#DejaVuSans-64" transform="translate(3073.005859 0)"/>
    </g>
   </g>
   <g id="legend_1">
    <g id="patch_5">
     <path d="M 648.93125 354.497656 
L 807.15625 354.497656 
Q 809.15625 354.497656 809.15625 352.497656 
L 809.15625 324.141406 
Q 809.15625 322.141406 807.15625 322.141406 
L 648.93125 322.141406 
Q 646.93125 322.141406 646.93125 324.141406 
L 646.93125 352.497656 
Q 646.93125 354.497656 648.93125 354.497656 
z
" style="fill: #ffffff; opacity: 0.8; stroke: #e2e8f0; stroke-linejoin: miter"/>
    </g>
    <g id="line2d_23">
     <path d="M 650.93125 330.239844 
L 660.93125 330.239844 
L 670.93125 330.239844 
" style="fill: none; stroke: #7c3aed; stroke-width: 2.6; stroke-linecap: square"/>
     <g>
      <use xlink:href="#m5682cebbdb" x="660.93125" y="330.239844" style="fill: #7c3aed; stroke: #7c3aed"/>
     </g>
    </g>
    <g id="text_17">
     <!-- batch mean env reward -->
     <g transform="translate(678.93125 333.739844) scale(0.1 -0.1)">
      <use xlink:href="#DejaVuSans-62"/>
      <use xlink:href="#DejaVuSans-61" transform="translate(63.476562 0)"/>
      <use xlink:href="#DejaVuSans-74" transform="translate(124.755859 0)"/>
      <use xlink:href="#DejaVuSans-63" transform="translate(163.964844 0)"/>
      <use xlink:href="#DejaVuSans-68" transform="translate(218.945312 0)"/>
      <use xlink:href="#DejaVuSans-20" transform="translate(282.324219 0)"/>
      <use xlink:href="#DejaVuSans-6d" transform="translate(314.111328 0)"/>
      <use xlink:href="#DejaVuSans-65" transform="translate(411.523438 0)"/>
      <use xlink:href="#DejaVuSans-61" transform="translate(473.046875 0)"/>
      <use xlink:href="#DejaVuSans-6e" transform="translate(534.326172 0)"/>
      <use xlink:href="#DejaVuSans-20" transform="translate(597.705078 0)"/>
      <use xlink:href="#DejaVuSans-65" transform="translate(629.492188 0)"/>
      <use xlink:href="#DejaVuSans-6e" transform="translate(691.015625 0)"/>
      <use xlink:href="#DejaVuSans-76" transform="translate(754.394531 0)"/>
      <use xlink:href="#DejaVuSans-20" transform="translate(813.574219 0)"/>
      <use xlink:href="#DejaVuSans-72" transform="translate(845.361328 0)"/>
      <use xlink:href="#DejaVuSans-65" transform="translate(884.224609 0)"/>
      <use xlink:href="#DejaVuSans-77" transform="translate(945.748047 0)"/>
      <use xlink:href="#DejaVuSans-61" transform="translate(1027.535156 0)"/>
      <use xlink:href="#DejaVuSans-72" transform="translate(1088.814453 0)"/>
      <use xlink:href="#DejaVuSans-64" transform="translate(1128.177734 0)"/>
     </g>
    </g>
    <g id="line2d_24">
     <path d="M 650.93125 344.917969 
L 660.93125 344.917969 
L 670.93125 344.917969 
" style="fill: none; stroke-dasharray: 8.88,3.84; stroke-dashoffset: 0; stroke: #1d4ed8; stroke-width: 2.4"/>
    </g>
    <g id="text_18">
     <!-- rolling mean (window=5) -->
     <g transform="translate(678.93125 348.417969) scale(0.1 -0.1)">
      <defs>
       <path id="DejaVuSans-3d" d="M 678 2906 
L 4684 2906 
L 4684 2381 
L 678 2381 
L 678 2906 
z
M 678 1631 
L 4684 1631 
L 4684 1100 
L 678 1100 
L 678 1631 
z
" transform="scale(0.015625)"/>
      </defs>
      <use xlink:href="#DejaVuSans-72"/>
      <use xlink:href="#DejaVuSans-6f" transform="translate(38.863281 0)"/>
      <use xlink:href="#DejaVuSans-6c" transform="translate(100.044922 0)"/>
      <use xlink:href="#DejaVuSans-6c" transform="translate(127.828125 0)"/>
      <use xlink:href="#DejaVuSans-69" transform="translate(155.611328 0)"/>
      <use xlink:href="#DejaVuSans-6e" transform="translate(183.394531 0)"/>
      <use xlink:href="#DejaVuSans-67" transform="translate(246.773438 0)"/>
      <use xlink:href="#DejaVuSans-20" transform="translate(310.25 0)"/>
      <use xlink:href="#DejaVuSans-6d" transform="translate(342.037109 0)"/>
      <use xlink:href="#DejaVuSans-65" transform="translate(439.449219 0)"/>
      <use xlink:href="#DejaVuSans-61" transform="translate(500.972656 0)"/>
      <use xlink:href="#DejaVuSans-6e" transform="translate(562.251953 0)"/>
      <use xlink:href="#DejaVuSans-20" transform="translate(625.630859 0)"/>
      <use xlink:href="#DejaVuSans-28" transform="translate(657.417969 0)"/>
      <use xlink:href="#DejaVuSans-77" transform="translate(696.431641 0)"/>
      <use xlink:href="#DejaVuSans-69" transform="translate(778.21875 0)"/>
      <use xlink:href="#DejaVuSans-6e" transform="translate(806.001953 0)"/>
      <use xlink:href="#DejaVuSans-64" transform="translate(869.380859 0)"/>
      <use xlink:href="#DejaVuSans-6f" transform="translate(932.857422 0)"/>
      <use xlink:href="#DejaVuSans-77" transform="translate(994.039062 0)"/>
      <use xlink:href="#DejaVuSans-3d" transform="translate(1075.826172 0)"/>
      <use xlink:href="#DejaVuSans-35" transform="translate(1159.615234 0)"/>
      <use xlink:href="#DejaVuSans-29" transform="translate(1223.238281 0)"/>
     </g>
    </g>
   </g>
  </g>
 </g>
 <defs>
  <clipPath id="pf6aa8779b1">
   <rect x="50.14375" y="36.597656" width="764.0125" height="322.9"/>
  </clipPath>
 </defs>
</svg>
